<?xml version="1.0" encoding="iso-8859-1"?>
<!-- Uploaded to: SVG Repo, www.svgrepo.com, Generator: SVG Repo Mixer Tools -->
<svg height="800px" width="800px" version="1.1" id="Layer_1" xmlns="http://www.w3.org/2000/svg" xmlns:xlink="http://www.w3.org/1999/xlink" 
	 viewBox="0 0 512 512" xml:space="preserve">
<g>
	<path style="fill:#81C784;" d="M82.441,130.169v26.034H59.739c-13.711,0-26.728-8.157-30.989-21.192
		c-0.382-1.145-0.694-2.317-0.937-3.497l-6.118-27.379l27.535,5.753C61.206,112.284,80.046,118.194,82.441,130.169"/>
	<path style="fill:#4CAF50;" d="M21.695,112.814c-2.222,0-4.443-0.85-6.135-2.543l-8.678-8.678c-3.393-3.393-3.393-8.878,0-12.271
		c3.393-3.393,8.878-3.393,12.271,0L27.83,98c3.393,3.393,3.393,8.878,0,12.271C26.138,111.963,23.916,112.814,21.695,112.814"/>
	<path style="fill:#81C784;" d="M82.441,130.169v26.034h22.702c13.711,0,26.728-8.157,30.989-21.192
		c0.382-1.145,0.694-2.317,0.937-3.497l6.118-27.379l-27.535,5.753C103.676,112.284,84.836,118.194,82.441,130.169"/>
	<path style="fill:#4CAF50;" d="M143.186,112.814c-2.222,0-4.443-0.85-6.135-2.543c-3.393-3.393-3.393-8.878,0-12.271l8.678-8.678
		c3.393-3.393,8.878-3.393,12.271,0c3.393,3.393,3.393,8.878,0,12.271l-8.678,8.678C147.63,111.963,145.408,112.814,143.186,112.814
		"/>
	<path style="fill:#81C784;" d="M82.441,216.949v26.034H59.739c-13.711,0-26.728-8.157-30.989-21.192
		c-0.382-1.145-0.694-2.317-0.937-3.497l-6.118-27.379l27.535,5.753C61.206,199.064,80.046,204.974,82.441,216.949"/>
	<path style="fill:#4CAF50;" d="M21.695,199.593c-2.222,0-4.443-0.85-6.135-2.543l-8.678-8.678c-3.393-3.393-3.393-8.878,0-12.271
		c3.393-3.393,8.878-3.393,12.271,0l8.678,8.678c3.393,3.393,3.393,8.878,0,12.271C26.138,198.743,23.916,199.593,21.695,199.593"/>
	<path style="fill:#81C784;" d="M82.441,216.949v26.034h22.702c13.711,0,26.728-8.157,30.989-21.192
		c0.382-1.145,0.694-2.317,0.937-3.497l6.118-27.379l-27.535,5.753C103.676,199.064,84.836,204.974,82.441,216.949"/>
	<path style="fill:#4CAF50;" d="M143.186,199.593c-2.222,0-4.443-0.85-6.135-2.543c-3.393-3.393-3.393-8.878,0-12.271l8.678-8.678
		c3.393-3.393,8.878-3.393,12.271,0c3.393,3.393,3.393,8.878,0,12.271l-8.678,8.678C147.63,198.743,145.408,199.593,143.186,199.593
		"/>
	<path style="fill:#81C784;" d="M82.441,303.729v26.034H59.739c-13.711,0-26.728-8.157-30.989-21.192
		c-0.382-1.145-0.694-2.317-0.937-3.497l-6.118-27.379l27.535,5.753C61.206,285.844,80.046,291.753,82.441,303.729"/>
	<path style="fill:#4CAF50;" d="M21.695,286.373c-2.222,0-4.443-0.85-6.135-2.543l-8.678-8.678c-3.393-3.393-3.393-8.878,0-12.271
		c3.393-3.393,8.878-3.393,12.271,0l8.678,8.678c3.393,3.393,3.393,8.878,0,12.271C26.138,285.522,23.916,286.373,21.695,286.373"/>
	<path style="fill:#81C784;" d="M82.441,303.729v26.034h22.702c13.711,0,26.728-8.157,30.989-21.192
		c0.382-1.145,0.694-2.317,0.937-3.497l6.118-27.379l-27.535,5.753C103.676,285.844,84.836,291.753,82.441,303.729"/>
	<g>
		<path style="fill:#4CAF50;" d="M143.186,286.373c-2.222,0-4.443-0.85-6.135-2.543c-3.393-3.393-3.393-8.878,0-12.271l8.678-8.678
			c3.393-3.393,8.878-3.393,12.271,0c3.393,3.393,3.393,8.878,0,12.271l-8.678,8.678
			C147.63,285.522,145.408,286.373,143.186,286.373"/>
		<path style="fill:#4CAF50;" d="M82.441,512c-4.799,0-8.678-3.888-8.678-8.678V69.424c0-4.79,3.879-8.678,8.678-8.678
			s8.678,3.888,8.678,8.678v433.898C91.119,508.112,87.24,512,82.441,512"/>
	</g>
	<path style="fill:#81C784;" d="M429.559,130.169v26.034h-22.702c-13.711,0-26.728-8.157-30.989-21.192
		c-0.382-1.145-0.694-2.317-0.937-3.497l-6.118-27.379l27.535,5.753C408.324,112.284,427.164,118.194,429.559,130.169"/>
	<path style="fill:#4CAF50;" d="M368.814,112.814c-2.222,0-4.443-0.85-6.135-2.543L354,101.593c-3.393-3.393-3.393-8.878,0-12.271
		c3.393-3.393,8.878-3.393,12.271,0L374.949,98c3.393,3.393,3.393,8.878,0,12.271C373.257,111.963,371.035,112.814,368.814,112.814"
		/>
	<path style="fill:#81C784;" d="M429.559,130.169v26.034h22.702c13.711,0,26.728-8.157,30.989-21.192
		c0.382-1.145,0.694-2.317,0.937-3.497l6.118-27.379l-27.535,5.753C450.794,112.284,431.954,118.194,429.559,130.169"/>
	<path style="fill:#4CAF50;" d="M490.305,112.814c-2.222,0-4.443-0.85-6.135-2.543c-3.393-3.393-3.393-8.878,0-12.271l8.678-8.678
		c3.393-3.393,8.878-3.393,12.271,0c3.393,3.393,3.393,8.878,0,12.271l-8.678,8.678
		C494.748,111.963,492.527,112.814,490.305,112.814"/>
	<path style="fill:#81C784;" d="M429.559,216.949v26.034h-22.702c-13.711,0-26.728-8.157-30.989-21.192
		c-0.382-1.145-0.694-2.317-0.937-3.497l-6.118-27.379l27.535,5.753C408.324,199.064,427.164,204.974,429.559,216.949"/>
	<path style="fill:#4CAF50;" d="M368.814,199.593c-2.222,0-4.443-0.85-6.135-2.543L354,188.373c-3.393-3.393-3.393-8.878,0-12.271
		c3.393-3.393,8.878-3.393,12.271,0l8.678,8.678c3.393,3.393,3.393,8.878,0,12.271C373.257,198.743,371.035,199.593,368.814,199.593
		"/>
	<path style="fill:#81C784;" d="M429.559,216.949v26.034h22.702c13.711,0,26.728-8.157,30.989-21.192
		c0.382-1.145,0.694-2.317,0.937-3.497l6.118-27.379l-27.535,5.753C450.794,199.064,431.954,204.974,429.559,216.949"/>
	<path style="fill:#4CAF50;" d="M490.305,199.593c-2.222,0-4.443-0.85-6.135-2.543c-3.393-3.393-3.393-8.878,0-12.271l8.678-8.678
		c3.393-3.393,8.878-3.393,12.271,0c3.393,3.393,3.393,8.878,0,12.271l-8.678,8.678
		C494.748,198.743,492.527,199.593,490.305,199.593"/>
	<path style="fill:#81C784;" d="M429.559,303.729v26.034h-22.702c-13.711,0-26.728-8.157-30.989-21.192
		c-0.382-1.145-0.694-2.317-0.937-3.497l-6.118-27.379l27.535,5.753C408.324,285.844,427.164,291.753,429.559,303.729"/>
	<path style="fill:#4CAF50;" d="M368.814,286.373c-2.222,0-4.443-0.85-6.135-2.543L354,275.152c-3.393-3.393-3.393-8.878,0-12.271
		c3.393-3.393,8.878-3.393,12.271,0l8.678,8.678c3.393,3.393,3.393,8.878,0,12.271C373.257,285.522,371.035,286.373,368.814,286.373
		"/>
	<path style="fill:#81C784;" d="M429.559,303.729v26.034h22.702c13.711,0,26.728-8.157,30.989-21.192
		c0.382-1.145,0.694-2.317,0.937-3.497l6.118-27.379l-27.535,5.753C450.794,285.844,431.954,291.753,429.559,303.729"/>
	<g>
		<path style="fill:#4CAF50;" d="M490.305,286.373c-2.222,0-4.443-0.85-6.135-2.543c-3.393-3.393-3.393-8.878,0-12.271l8.678-8.678
			c3.393-3.393,8.878-3.393,12.271,0c3.393,3.393,3.393,8.878,0,12.271l-8.678,8.678
			C494.748,285.522,492.527,286.373,490.305,286.373"/>
		<path style="fill:#4CAF50;" d="M429.559,512c-4.799,0-8.678-3.888-8.678-8.678V69.424c0-4.79,3.879-8.678,8.678-8.678
			s8.678,3.888,8.678,8.678v433.898C438.237,508.112,434.358,512,429.559,512"/>
	</g>
	<g>
		<path style="fill:#81C784;" d="M256,72.018v23.439l-21.582-3.35c-20.879-2.985-41.507-23.613-44.492-44.492l-3.35-21.582
			l23.439,1.493C230.895,30.503,253.015,51.139,256,72.018"/>
		<path style="fill:#81C784;" d="M256,72.018v23.439l21.582-3.35c20.879-2.985,41.507-23.613,44.492-44.492l3.35-21.582
			l-23.439,1.493C281.105,30.503,258.985,51.139,256,72.018"/>
	</g>
	<g>
		<path style="fill:#4CAF50;" d="M256,512c-4.799,0-8.678-3.888-8.678-8.678V8.678C247.322,3.888,251.201,0,256,0
			c4.799,0,8.678,3.888,8.678,8.678v494.644C264.678,508.112,260.799,512,256,512"/>
		<path style="fill:#4CAF50;" d="M186.576,34.712c-2.222,0-4.443-0.85-6.135-2.543l-8.678-8.678c-3.393-3.393-3.393-8.878,0-12.271
			c3.393-3.393,8.878-3.393,12.271,0l8.678,8.678c3.393,3.393,3.393,8.878,0,12.271C191.019,33.861,188.798,34.712,186.576,34.712"
			/>
		<path style="fill:#4CAF50;" d="M325.424,34.712c-2.222,0-4.443-0.85-6.135-2.543c-3.393-3.393-3.393-8.878,0-12.271l8.678-8.678
			c3.393-3.393,8.878-3.393,12.271,0s3.393,8.878,0,12.271l-8.678,8.678C329.867,33.861,327.645,34.712,325.424,34.712"/>
	</g>
	<g>
		<path style="fill:#81C784;" d="M256,167.476v23.439l-21.582-3.35c-20.879-2.985-41.507-23.613-44.492-44.492l-3.35-21.582
			l23.439,1.493C230.895,125.961,253.015,146.597,256,167.476"/>
		<path style="fill:#81C784;" d="M256,167.476v23.439l21.582-3.35c20.879-2.985,41.507-23.613,44.492-44.492l3.35-21.582
			l-23.439,1.493C281.105,125.961,258.985,146.597,256,167.476"/>
	</g>
	<g>
		<path style="fill:#4CAF50;" d="M186.576,130.169c-2.222,0-4.443-0.85-6.135-2.543l-8.678-8.678c-3.393-3.393-3.393-8.878,0-12.271
			c3.393-3.393,8.878-3.393,12.271,0l8.678,8.678c3.393,3.393,3.393,8.878,0,12.271
			C191.019,129.319,188.798,130.169,186.576,130.169"/>
		<path style="fill:#4CAF50;" d="M325.424,130.169c-2.222,0-4.443-0.85-6.135-2.543c-3.393-3.393-3.393-8.878,0-12.271l8.678-8.678
			c3.393-3.393,8.878-3.393,12.271,0s3.393,8.878,0,12.271l-8.678,8.678C329.867,129.319,327.645,130.169,325.424,130.169"/>
	</g>
	<g>
		<path style="fill:#81C784;" d="M256,262.934v23.439l-21.582-3.35c-20.879-2.985-41.507-23.613-44.492-44.492l-3.35-21.582
			l23.439,1.493C230.895,221.418,253.015,242.055,256,262.934"/>
		<path style="fill:#81C784;" d="M256,262.934v23.439l21.582-3.35c20.879-2.985,41.507-23.613,44.492-44.492l3.35-21.582
			l-23.439,1.493C281.105,221.418,258.985,242.055,256,262.934"/>
	</g>
	<g>
		<path style="fill:#4CAF50;" d="M186.576,225.627c-2.222,0-4.443-0.85-6.135-2.543l-8.678-8.678c-3.393-3.393-3.393-8.878,0-12.271
			c3.393-3.393,8.878-3.393,12.271,0l8.678,8.678c3.393,3.393,3.393,8.878,0,12.271
			C191.019,224.777,188.798,225.627,186.576,225.627"/>
		<path style="fill:#4CAF50;" d="M325.424,225.627c-2.222,0-4.443-0.85-6.135-2.543c-3.393-3.393-3.393-8.878,0-12.271l8.678-8.678
			c3.393-3.393,8.878-3.393,12.271,0s3.393,8.878,0,12.271l-8.678,8.678C329.867,224.777,327.645,225.627,325.424,225.627"/>
	</g>
</g>
</svg>